<svg xmlns="http://www.w3.org/2000/svg" xmlns:xlink="http://www.w3.org/1999/xlink" width="500" zoomAndPan="magnify" viewBox="0 0 375 374.999991" height="500" preserveAspectRatio="xMidYMid meet" version="1.0"><defs><g/><clipPath id="id1"><path d="M 187.5 0 C 83.945312 0 0 83.945312 0 187.5 C 0 291.054688 83.945312 375 187.5 375 C 291.054688 375 375 291.054688 375 187.5 C 375 83.945312 291.054688 0 187.5 0 " clip-rule="nonzero"/></clipPath><clipPath id="id2"><path d="M 14.144531 14.144531 L 360.644531 14.144531 L 360.644531 360.644531 L 14.144531 360.644531 Z M 14.144531 14.144531 " clip-rule="nonzero"/></clipPath><clipPath id="id3"><path d="M 14.144531 14.144531 L 360.644531 14.144531 L 360.644531 360.644531 L 14.144531 360.644531 Z M 14.144531 14.144531 " clip-rule="nonzero"/></clipPath><clipPath id="id4"><path d="M 187.394531 14.144531 C 91.710938 14.144531 14.144531 91.710938 14.144531 187.394531 C 14.144531 283.078125 91.710938 360.644531 187.394531 360.644531 C 283.078125 360.644531 360.644531 283.078125 360.644531 187.394531 C 360.644531 91.710938 283.078125 14.144531 187.394531 14.144531 " clip-rule="nonzero"/></clipPath></defs><path fill="#fffc00" d="M 187.5 0 C 83.945312 0 0 83.945312 0 187.5 C 0 291.054688 83.945312 375 187.5 375 C 291.054688 375 375 291.054688 375 187.5 C 375 83.945312 291.054688 0 187.5 0 " fill-opacity="1" fill-rule="nonzero"/><g clip-path="url(#id1)"><path stroke-linecap="butt" transform="matrix(0.75, 0, 0, 0.75, 0.0000045, 0)" fill="none" stroke-linejoin="miter" d="M 249.999994 0 C 111.927078 0 -0.000006 111.927084 -0.000006 250 C -0.000006 388.072917 111.927078 500.000001 249.999994 500.000001 C 388.072911 500.000001 499.999995 388.072917 499.999995 250 C 499.999995 111.927084 388.072911 0 249.999994 0 " stroke="#000000" stroke-width="18" stroke-opacity="1" stroke-miterlimit="4"/></g><g clip-path="url(#id2)"><path fill="#ffffff" d="M 187.394531 14.144531 C 91.710938 14.144531 14.144531 91.710938 14.144531 187.394531 C 14.144531 283.078125 91.710938 360.644531 187.394531 360.644531 C 283.078125 360.644531 360.644531 283.078125 360.644531 187.394531 C 360.644531 91.710938 283.078125 14.144531 187.394531 14.144531 " fill-opacity="1" fill-rule="nonzero"/></g><g clip-path="url(#id3)"><g clip-path="url(#id4)"><path stroke-linecap="butt" transform="matrix(0.749544, 0, 0, 0.749544, 14.143324, 14.143329)" fill="none" stroke-linejoin="miter" d="M 231.142241 0.00160377 C 103.486448 0.00160377 0.00161122 103.486441 0.00161122 231.142234 C 0.00161122 358.798027 103.486448 462.282864 231.142241 462.282864 C 358.798034 462.282864 462.282871 358.798027 462.282871 231.142234 C 462.282871 103.486441 358.798034 0.00160377 231.142241 0.00160377 " stroke="#007bff" stroke-width="58" stroke-opacity="1" stroke-miterlimit="4"/></g></g><g fill="#000000" fill-opacity="1"><g transform="translate(106.769712, 268.330182)"><g><path d="M 143.742188 -173.792969 C 127.230469 -165.941406 99.890625 -100.429688 78.234375 -67.40625 C 71.464844 -89.601562 72.277344 -133.1875 64.425781 -155.382812 C 60.636719 -176.769531 21.386719 -175.414062 24.90625 -166.210938 C 30.320312 -152.136719 -14.890625 -28.964844 -14.617188 -11.910156 C -14.347656 -5.957031 -11.640625 -0.542969 -3.789062 2.164062 C 8.664062 6.769531 28.695312 0.542969 27.882812 -2.4375 C 24.632812 -14.347656 29.777344 -38.710938 37.085938 -61.992188 C 39.253906 -69.570312 40.875 -77.152344 43.855469 -84.460938 C 46.289062 -56.578125 49.539062 -25.71875 62.804688 -20.574219 C 67.675781 -18.136719 73.089844 -18.679688 80.128906 -25.175781 C 87.707031 -32.484375 108.824219 -72.820312 126.6875 -104.761719 C 115.320312 -67.40625 101.242188 -25.71875 101.242188 -15.699219 C 102.054688 -10.015625 104.761719 -4.871094 112.34375 -1.894531 C 125.066406 2.976562 144.554688 -3.789062 144.015625 -6.496094 C 140.765625 -18.136719 145.097656 -39.792969 152.40625 -62.804688 C 162.691406 -96.101562 176.226562 -132.914062 180.289062 -148.074219 C 187.597656 -174.332031 152.675781 -178.664062 143.742188 -173.792969 Z M 143.742188 -173.792969 "/></g></g></g></svg>